# xmcd
#
# Track frame offsets:
#	150
#	17427
#	37174
#	50747
#	65031
#	81623
#	101505
#	115407
#	129070
#	143071
#	157113
#	171423
#	184977
#	202106
#
# Disc length: 2967
#
# Revision: 3
# Processed by: cddbd v1.5.1PL0 Copyright (c) Steve Scherf et al.
# Submitted via: audiograbber 1.80
# Normalized: r1:TDELIM( - );r2:TSWAP
#
DISCID=d30b950e
DTITLE=Various Artist - Mr Music Country 2003 10
DYEAR=1900
DGENRE=
TTITLE0=Alan Jackson and Jimmy Buffet - It's Five O'Clock Somewhere
TTITLE1=Brad Paisley - Hold Me In Your Arms
TTITLE2=Nanci Griffith - You Ask Me To
TTITLE3=Leroy New - Does Fort Worth Ever Cross Your Mind
TTITLE4=Brooks and Dunn - My Baby's Everything I Love
TTITLE5=Allison Moorer - Storms Never Last
TTITLE6=Guy Clark - Good Hearted Woman
TTITLE7=Jack Clement and Pam Tillis - Let's All Help The Cowboys
TTITLE8=Harlan Howard - That's Just Bar Talk
TTITLE9=Tracy Byrd - Baby Put Your Clothes On
TTITLE10=Erin Hay - Seed Catalog
TTITLE11=Billy Yates - In The Light Of Day
TTITLE12=Sara Evans - Suds In The Bucket
TTITLE13=James Segrest - The Old Violin
EXTD=
EXTT0=
EXTT1=
EXTT2=
EXTT3=
EXTT4=
EXTT5=
EXTT6=
EXTT7=
EXTT8=
EXTT9=
EXTT10=
EXTT11=
EXTT12=
EXTT13=
PLAYORDER=
